<svg id="svg" version="1.1" xmlns="http://www.w3.org/2000/svg" xmlns:xlink="http://www.w3.org/1999/xlink" width="400" height="400" viewBox="0, 0, 400,400"><g id="svgg"><path id="path0" d="M163.672 158.333 C 158.506 158.839,156.375 159.229,152.539 160.370 C 135.511 165.438,137.135 176.171,155.566 180.374 C 176.221 185.084,200.308 177.175,195.287 167.332 C 192.347 161.571,176.541 157.071,163.672 158.333 M173.242 160.528 C 186.891 163.602,183.204 173.125,168.359 173.140 C 152.180 173.157,150.019 162.037,165.820 160.080 C 167.270 159.901,171.623 160.163,173.242 160.528 M165.820 162.705 C 161.608 163.216,158.370 165.116,158.681 166.895 C 159.394 170.971,173.182 171.987,177.134 168.254 C 180.301 165.260,173.254 161.804,165.820 162.705 M138.578 174.082 C 138.507 174.748,137.974 178.809,137.395 183.105 C 136.815 187.402,135.896 194.422,135.353 198.705 C 134.810 202.988,134.196 207.646,133.988 209.056 C 133.064 215.352,131.442 228.393,131.544 228.713 C 131.720 229.268,133.197 230.530,134.679 231.391 C 136.075 232.202,138.306 233.208,148.242 237.504 C 151.411 238.874,156.245 240.978,158.984 242.180 C 165.044 244.840,165.627 245.012,168.555 245.007 C 171.767 245.001,170.821 245.352,188.379 237.643 C 203.604 230.958,203.598 230.961,204.702 229.176 L 205.139 228.469 204.704 224.928 C 204.465 222.980,203.753 217.432,203.121 212.598 C 201.963 203.740,201.665 201.442,199.324 183.301 C 198.617 177.822,198.018 173.211,197.993 173.054 C 197.967 172.896,197.664 173.336,197.319 174.030 C 190.354 188.035,146.360 188.166,139.375 174.204 L 138.708 172.871 138.578 174.082 M143.300 184.292 L 143.822 184.708 143.584 187.715 C 142.952 195.696,139.891 228.710,139.769 228.846 C 139.751 228.867,138.833 228.428,137.730 227.870 L 135.725 226.855 135.836 225.977 C 136.147 223.509,138.165 208.344,138.668 204.688 C 138.986 202.378,139.735 196.797,140.332 192.285 C 141.676 182.130,141.469 183.103,142.196 183.532 C 142.517 183.722,143.014 184.064,143.300 184.292 M205.241 233.361 C 205.120 236.704,204.102 238.071,200.630 239.550 C 199.800 239.904,196.924 241.181,194.238 242.388 C 172.616 252.107,171.241 252.634,167.871 252.485 C 165.255 252.369,165.289 252.381,157.617 248.929 C 150.989 245.947,147.832 244.557,140.234 241.278 C 132.433 237.912,131.445 236.945,131.445 232.674 C 131.445 231.998,131.396 231.445,131.335 231.445 C 130.949 231.445,128.117 232.932,127.430 233.495 C 125.389 235.168,125.259 237.601,127.109 239.519 C 128.134 240.582,127.931 240.485,142.773 247.063 C 145.620 248.325,148.828 249.757,149.902 250.246 C 166.741 257.908,166.570 257.845,169.336 257.519 C 171.659 257.245,173.794 256.359,191.172 248.453 C 194.685 246.855,199.844 244.524,202.637 243.273 C 208.093 240.828,209.431 240.055,210.252 238.870 C 212.077 236.237,210.671 233.642,206.398 231.752 L 205.316 231.274 205.241 233.361 M210.862 239.812 C 210.057 240.974,208.948 241.653,204.951 243.433 C 202.926 244.335,199.204 246.014,196.680 247.165 C 170.423 259.137,171.553 258.676,168.457 258.667 C 165.929 258.660,165.142 258.418,159.961 256.055 C 157.651 255.001,154.883 253.744,153.809 253.261 C 152.734 252.778,150.757 251.885,149.414 251.276 C 148.071 250.667,143.105 248.450,138.379 246.351 C 127.251 241.408,127.499 241.533,126.351 240.278 L 125.391 239.226 125.391 243.211 C 125.391 250.979,125.064 250.657,139.397 257.016 C 145.067 259.532,150.806 262.091,152.148 262.703 C 169.810 270.750,167.342 270.569,180.238 264.764 C 184.608 262.796,192.661 259.175,198.133 256.717 C 211.681 250.630,211.146 251.159,211.351 243.652 C 211.491 238.489,211.536 238.839,210.862 239.812 M85.401 311.226 C 82.443 312.061,80.882 313.823,80.706 316.526 C 80.487 319.907,81.815 321.263,86.723 322.670 C 90.897 323.867,91.602 324.324,91.602 325.832 C 91.602 328.845,86.462 329.190,83.044 326.406 L 82.001 325.556 80.950 326.694 C 79.728 328.019,79.711 328.086,80.420 328.751 C 85.075 333.118,93.727 332.292,95.197 327.341 C 96.257 323.772,94.295 321.109,89.648 319.813 C 88.628 319.528,87.310 319.160,86.721 318.995 C 84.062 318.251,83.555 315.877,85.805 314.713 C 87.225 313.979,90.402 314.524,92.296 315.827 C 92.788 316.167,93.227 316.408,93.271 316.364 C 93.522 316.113,94.922 313.823,94.922 313.663 C 94.922 313.349,92.770 312.064,91.406 311.563 C 89.775 310.964,86.902 310.802,85.401 311.226 M269.043 311.074 C 262.014 312.008,258.108 319.927,261.474 326.416 C 264.408 332.072,272.811 333.466,277.738 329.115 L 278.809 328.169 277.540 327.001 L 276.272 325.833 275.490 326.467 C 270.610 330.422,264.141 327.463,264.168 321.289 C 264.195 315.245,271.311 312.150,275.593 316.318 L 276.285 316.991 277.419 315.603 L 278.553 314.215 277.823 313.468 C 275.960 311.560,272.495 310.615,269.043 311.074 M290.087 311.143 C 284.077 312.210,280.282 317.766,281.533 323.667 C 283.711 333.941,298.939 334.345,301.749 324.203 C 303.808 316.773,297.591 309.810,290.087 311.143 M99.609 321.289 L 99.609 331.250 101.465 331.250 L 103.320 331.250 103.333 325.830 C 103.340 322.849,103.335 319.619,103.321 318.652 C 103.291 316.473,103.197 316.371,105.764 321.289 C 106.914 323.491,108.205 325.934,108.634 326.718 L 109.412 328.143 110.592 328.085 L 111.771 328.027 113.177 325.391 C 113.950 323.940,115.279 321.448,116.129 319.851 L 117.676 316.949 117.727 324.099 L 117.778 331.250 119.631 331.250 L 121.484 331.250 121.484 321.283 L 121.484 311.316 119.018 311.371 L 116.551 311.426 114.278 315.820 C 111.635 320.929,110.693 322.656,110.549 322.656 C 110.492 322.656,109.535 320.920,108.423 318.799 C 107.310 316.677,105.922 314.128,105.337 313.135 L 104.274 311.328 101.942 311.328 L 99.609 311.328 99.609 321.289 M133.721 311.963 C 133.574 312.312,132.241 315.322,130.759 318.652 C 129.278 321.982,127.431 326.182,126.655 327.985 L 125.243 331.263 127.205 331.208 L 129.166 331.152 130.005 329.199 L 130.844 327.246 135.848 327.246 L 140.851 327.246 141.684 329.199 L 142.518 331.152 144.501 331.208 C 145.592 331.239,146.484 331.219,146.484 331.164 C 146.484 330.960,141.771 320.057,139.831 315.771 L 137.818 311.328 135.904 311.328 L 133.990 311.328 133.721 311.963 M150.137 311.452 C 150.069 311.520,150.009 316.002,150.004 321.413 L 149.994 331.250 151.958 331.250 L 153.923 331.250 153.896 327.979 L 153.869 324.707 155.922 324.652 L 157.975 324.596 160.384 327.918 L 162.793 331.240 164.990 331.245 C 167.311 331.250,167.401 331.218,166.822 330.579 C 166.296 329.997,162.276 324.376,162.345 324.317 C 162.376 324.289,162.780 324.076,163.241 323.844 C 169.157 320.860,167.406 312.396,160.694 311.524 C 159.112 311.319,150.330 311.258,150.137 311.452 M169.418 311.591 C 169.363 311.735,169.344 312.504,169.376 313.300 L 169.434 314.746 172.656 314.844 L 175.879 314.941 175.930 323.096 L 175.981 331.250 177.834 331.250 L 179.688 331.250 179.688 323.047 L 179.688 314.844 182.813 314.844 L 185.938 314.844 185.938 313.086 L 185.938 311.328 177.728 311.328 C 171.036 311.328,169.500 311.377,169.418 311.591 M197.982 311.475 C 197.933 311.555,197.918 313.247,197.947 315.234 C 197.977 317.222,198.011 321.644,198.024 325.061 L 198.047 331.274 204.366 331.213 L 210.685 331.152 212.032 330.467 C 215.575 328.665,216.016 323.966,212.858 321.678 C 212.414 321.357,211.932 321.094,211.787 321.094 C 211.344 321.094,211.492 320.761,212.108 320.371 C 215.826 318.017,213.932 312.301,209.180 311.536 C 207.737 311.303,198.116 311.251,197.982 311.475 M219.141 321.289 L 219.141 331.250 226.855 331.250 L 234.570 331.250 234.570 329.590 L 234.570 327.930 228.711 327.930 L 222.852 327.930 222.852 325.509 C 222.852 322.559,222.248 322.852,228.336 322.852 L 233.203 322.852 233.203 321.191 L 233.203 319.531 228.027 319.531 L 222.852 319.531 222.852 317.188 L 222.852 314.844 228.613 314.844 L 234.375 314.844 234.375 313.086 L 234.375 311.328 226.758 311.328 L 219.141 311.328 219.141 321.289 M245.638 311.475 C 245.528 311.659,243.007 317.318,240.528 322.949 C 239.487 325.313,238.284 328.037,237.855 329.004 C 237.425 329.971,237.028 330.872,236.973 331.006 C 236.896 331.192,237.334 331.250,238.797 331.249 L 240.723 331.248 241.597 329.195 L 242.471 327.142 247.530 327.194 L 252.589 327.246 253.422 329.199 L 254.255 331.152 256.229 331.208 C 257.315 331.239,258.203 331.232,258.203 331.193 C 258.203 331.050,253.526 320.281,251.548 315.869 L 249.512 311.329 247.619 311.328 C 246.578 311.328,245.687 311.394,245.638 311.475 M306.641 321.289 L 306.641 331.250 308.494 331.250 L 310.347 331.250 310.398 324.405 L 310.449 317.561 313.882 321.915 C 315.770 324.310,318.173 327.393,319.223 328.767 L 321.132 331.265 322.774 331.208 C 323.677 331.178,324.416 331.086,324.415 331.006 C 324.415 330.925,324.414 326.465,324.414 321.094 L 324.414 311.328 322.561 311.328 L 320.708 311.328 320.657 318.010 L 320.605 324.693 315.342 318.010 L 310.078 311.328 308.359 311.328 L 306.641 311.328 306.641 321.289 M294.382 314.996 C 296.463 315.917,297.903 317.914,298.249 320.360 C 299.410 328.571,287.969 331.448,285.520 323.560 C 283.784 317.966,289.219 312.712,294.382 314.996 M160.999 315.127 C 163.894 316.159,163.644 320.433,160.640 321.267 C 160.213 321.385,158.523 321.483,156.885 321.483 L 153.906 321.484 153.882 318.555 C 153.868 316.943,153.841 315.515,153.820 315.381 C 153.800 315.247,153.816 315.071,153.856 314.990 C 153.991 314.721,160.193 314.839,160.999 315.127 M209.186 315.140 C 210.310 315.721,210.660 317.167,209.956 318.322 C 209.308 319.385,208.524 319.598,204.932 319.688 L 201.758 319.767 201.758 317.305 L 201.758 314.844 205.185 314.844 C 207.867 314.844,208.738 314.908,209.186 315.140 M137.695 319.545 C 138.608 321.701,139.385 323.547,139.421 323.647 C 139.459 323.754,138.038 323.828,135.933 323.828 C 132.632 323.828,132.389 323.804,132.505 323.486 C 132.939 322.301,135.851 315.625,135.934 315.625 C 135.990 315.625,136.782 317.389,137.695 319.545 M249.305 319.531 C 250.137 321.519,250.865 323.298,250.920 323.486 C 251.015 323.803,250.767 323.828,247.581 323.828 C 245.689 323.828,244.141 323.753,244.141 323.661 C 244.141 323.509,246.667 317.461,247.275 316.157 C 247.608 315.445,247.558 315.362,249.305 319.531 M209.411 323.054 C 211.589 323.659,211.926 326.630,209.919 327.541 C 209.186 327.874,208.625 327.922,205.420 327.925 L 201.758 327.930 201.758 325.391 L 201.758 322.852 205.225 322.853 C 207.131 322.853,209.015 322.944,209.411 323.054 " stroke="none" fill="#0d0e53" fill-rule="evenodd"></path><path id="path1" d="M0.000 200.000 L 0.000 400.000 200.000 400.000 L 400.000 400.000 400.000 200.000 L 400.000 0.000 200.000 0.000 L 0.000 0.000 0.000 200.000 M239.336 102.941 C 241.339 103.883,250.636 112.628,254.792 117.480 C 283.298 150.763,285.787 197.858,260.945 233.887 C 258.101 238.010,257.100 238.744,254.297 238.760 C 248.950 238.790,246.016 233.066,249.120 228.661 C 252.806 223.429,254.049 221.401,256.207 217.090 C 263.969 201.584,266.652 184.634,264.068 167.441 C 261.083 147.588,251.065 129.570,235.622 116.278 C 234.643 115.436,233.324 114.298,232.691 113.751 C 227.024 108.851,232.603 99.776,239.336 102.941 M226.860 123.651 C 228.267 124.178,229.626 125.313,233.605 129.289 C 257.904 153.561,261.649 189.958,242.715 217.826 C 240.349 221.309,237.637 222.176,234.281 220.524 C 230.166 218.498,229.673 214.636,232.910 209.776 C 244.488 192.393,244.935 169.456,234.061 150.730 C 230.258 144.181,227.495 140.817,220.768 134.546 C 215.562 129.693,220.311 121.201,226.860 123.651 M215.795 143.585 C 216.422 143.853,217.392 144.670,218.961 146.254 C 233.201 160.616,236.492 183.335,226.808 200.426 C 223.904 205.552,221.069 206.956,217.335 205.117 C 213.366 203.163,212.470 199.262,215.056 195.201 C 223.013 182.712,220.725 165.439,209.691 154.688 C 208.654 153.677,207.993 152.830,207.561 151.958 C 205.008 146.806,210.432 141.290,215.795 143.585 M172.461 158.209 C 194.363 159.869,203.496 170.585,189.149 177.789 C 176.646 184.067,152.625 182.793,143.606 175.375 C 133.308 166.905,150.698 156.559,172.461 158.209 M165.137 160.276 C 155.086 161.737,151.787 167.754,159.093 171.303 C 169.834 176.520,187.120 170.121,179.891 163.603 C 177.228 161.203,169.990 159.570,165.137 160.276 M173.145 163.030 C 181.819 165.455,178.633 170.596,168.457 170.596 C 157.601 170.595,154.667 164.871,164.453 162.785 C 166.324 162.386,171.348 162.528,173.145 163.030 M200.092 188.291 C 201.223 197.041,202.586 207.539,203.121 211.621 C 203.655 215.703,204.362 221.187,204.690 223.808 L 205.287 228.572 204.770 229.318 C 203.489 231.167,200.387 232.667,177.117 242.689 C 169.686 245.890,167.428 246.000,161.600 243.446 C 160.215 242.840,155.742 240.894,151.660 239.124 C 134.638 231.740,133.152 231.005,131.803 229.297 L 131.263 228.613 132.523 219.043 C 133.216 213.779,133.959 208.242,134.173 206.738 C 134.387 205.234,135.049 200.181,135.645 195.508 C 136.240 190.835,137.076 184.507,137.501 181.445 C 137.926 178.384,138.327 175.220,138.392 174.414 C 138.560 172.323,138.636 172.227,139.143 173.474 C 141.637 179.610,152.897 184.148,166.537 184.514 C 182.002 184.928,195.221 180.095,197.583 173.162 C 197.755 172.657,197.927 172.276,197.965 172.314 C 198.003 172.352,198.960 179.542,200.092 188.291 M141.602 183.623 C 141.602 183.896,139.688 198.274,138.668 205.664 C 137.556 213.730,135.938 226.048,135.938 226.455 C 135.938 226.778,136.330 227.060,137.785 227.783 L 139.633 228.701 139.738 228.071 C 140.018 226.394,142.745 196.475,143.616 185.525 C 143.692 184.562,143.745 184.630,142.236 183.736 C 141.760 183.453,141.602 183.425,141.602 183.623 M131.641 232.777 C 131.641 236.934,132.560 237.861,139.716 240.924 C 143.508 242.547,154.488 247.387,160.742 250.191 C 169.111 253.943,166.914 254.482,195.694 241.626 C 204.746 237.582,205.568 236.793,205.221 232.475 C 205.101 230.979,205.125 230.974,207.235 232.036 C 209.908 233.379,211.119 234.827,211.129 236.689 C 211.141 239.098,209.876 240.108,202.898 243.262 C 199.854 244.638,193.979 247.298,189.844 249.174 C 166.310 259.850,169.983 259.447,155.566 252.933 C 150.625 250.701,143.022 247.290,138.672 245.354 C 134.321 243.417,130.172 241.567,129.452 241.241 C 124.250 238.889,124.372 234.613,129.716 232.029 C 131.763 231.039,131.641 230.991,131.641 232.777 M211.488 244.336 C 211.381 250.539,210.906 251.117,202.993 254.666 C 200.649 255.718,196.138 257.743,192.969 259.166 C 189.800 260.589,185.933 262.325,184.375 263.024 C 182.817 263.723,179.431 265.250,176.850 266.418 C 168.104 270.374,169.062 270.474,154.980 264.120 C 150.469 262.084,142.778 258.640,137.891 256.468 C 125.106 250.787,125.195 250.883,125.195 242.830 C 125.195 238.547,125.220 238.457,126.031 239.739 C 126.834 241.005,127.578 241.413,135.671 245.011 C 141.998 247.824,149.128 251.031,161.812 256.766 C 167.770 259.461,169.398 259.354,177.514 255.742 C 181.544 253.948,183.676 252.982,191.406 249.450 C 193.286 248.591,197.197 246.817,200.098 245.508 C 209.754 241.148,210.230 240.881,211.042 239.365 L 211.426 238.648 211.488 239.685 C 211.522 240.256,211.522 242.349,211.488 244.336 M91.113 311.344 C 92.230 311.688,94.324 312.811,94.898 313.374 C 95.125 313.597,95.024 313.866,94.240 315.124 L 93.313 316.611 92.702 316.201 C 89.004 313.727,84.570 314.021,84.570 316.741 C 84.570 318.101,85.079 318.435,88.563 319.360 C 93.551 320.685,95.589 322.523,95.576 325.683 C 95.552 331.855,86.204 333.941,80.578 329.029 L 79.613 328.187 80.764 326.789 C 82.121 325.139,81.883 325.204,82.952 326.189 C 86.125 329.115,92.104 328.617,91.515 325.476 C 91.340 324.543,90.460 323.908,88.562 323.343 C 87.656 323.072,86.177 322.632,85.277 322.364 C 81.927 321.366,80.563 319.782,80.570 316.895 C 80.581 312.239,85.538 309.630,91.113 311.344 M273.828 311.172 C 275.128 311.480,277.174 312.603,278.026 313.476 L 278.775 314.242 277.987 315.097 C 277.554 315.567,277.046 316.186,276.858 316.472 C 276.412 317.153,276.295 317.134,275.254 316.217 C 270.892 312.378,264.354 315.420,264.356 321.289 C 264.358 327.328,270.591 330.286,275.275 326.471 L 276.285 325.648 277.610 326.880 L 278.936 328.111 278.018 329.003 C 272.345 334.517,261.957 331.494,260.371 323.867 C 258.676 315.715,265.567 309.214,273.828 311.172 M294.601 311.247 C 302.270 313.224,304.899 322.916,299.316 328.630 C 293.613 334.467,283.050 331.658,281.434 323.873 C 279.795 315.975,286.817 309.240,294.601 311.247 M102.472 311.325 L 104.456 311.328 106.136 314.307 C 107.060 315.945,108.408 318.449,109.132 319.871 C 109.857 321.293,110.496 322.457,110.553 322.459 C 110.647 322.461,112.343 319.307,115.358 313.526 L 116.504 311.328 119.092 311.328 L 121.680 311.328 121.680 321.387 L 121.680 331.445 119.727 331.445 L 117.773 331.445 117.744 324.854 C 117.711 317.615,117.717 317.847,117.561 317.691 C 117.500 317.630,116.674 319.052,115.724 320.851 C 114.775 322.650,113.506 325.044,112.904 326.172 L 111.809 328.223 110.543 328.223 L 109.277 328.223 106.445 322.801 L 103.613 317.378 103.562 324.412 L 103.511 331.445 101.560 331.445 L 99.609 331.445 99.609 321.266 L 99.609 311.087 100.049 311.205 C 100.291 311.270,101.381 311.324,102.472 311.325 M139.867 315.527 C 141.879 319.973,146.680 331.103,146.680 331.322 C 146.680 331.390,145.735 331.444,144.580 331.443 L 142.480 331.442 141.623 329.393 L 140.766 327.344 135.840 327.344 L 130.914 327.344 130.056 329.393 L 129.199 331.442 127.197 331.443 C 125.949 331.445,125.195 331.369,125.195 331.244 C 125.195 331.020,126.677 327.577,129.690 320.801 C 130.788 318.330,132.164 315.216,132.748 313.881 C 133.332 312.546,133.856 311.378,133.912 311.287 C 133.969 311.195,134.895 311.144,135.969 311.175 L 137.923 311.230 139.867 315.527 M158.105 311.378 C 161.730 311.430,161.845 311.445,163.045 311.996 C 167.932 314.241,168.284 321.232,163.636 323.722 C 163.065 324.028,162.566 324.304,162.527 324.336 C 162.487 324.368,163.564 325.929,164.919 327.805 C 166.274 329.681,167.383 331.268,167.383 331.331 C 167.383 331.394,166.350 331.444,165.088 331.442 L 162.793 331.438 160.434 328.170 L 158.074 324.902 155.990 324.847 L 153.906 324.791 153.906 328.118 L 153.906 331.445 151.953 331.445 L 150.000 331.445 150.000 321.338 L 149.999 311.230 152.197 311.278 C 153.406 311.303,156.064 311.349,158.105 311.378 M234.529 313.139 L 234.473 314.941 228.760 314.993 L 223.047 315.045 223.047 317.288 L 223.047 319.531 228.111 319.531 L 233.174 319.531 233.238 321.209 C 233.272 322.131,233.264 322.922,233.219 322.966 C 233.175 323.011,230.868 323.047,228.092 323.047 L 223.047 323.047 223.047 325.391 L 223.047 327.734 228.906 327.734 L 234.766 327.734 234.766 329.590 L 234.766 331.445 226.855 331.445 L 218.945 331.445 218.945 321.419 C 218.945 315.905,218.982 311.357,219.027 311.312 C 219.071 311.267,222.590 311.254,226.846 311.284 L 234.585 311.337 234.529 313.139 M249.566 311.377 C 249.948 311.846,258.398 330.974,258.398 331.371 C 258.398 331.419,257.456 331.434,256.304 331.403 L 254.209 331.348 253.384 329.395 L 252.559 327.441 247.520 327.394 L 242.480 327.348 241.624 329.396 L 240.767 331.445 238.743 331.445 C 237.630 331.445,236.719 331.418,236.719 331.384 C 236.719 331.350,237.625 329.262,238.734 326.745 C 239.842 324.228,241.791 319.795,243.066 316.895 C 245.890 310.468,245.372 311.133,247.559 311.133 C 248.768 311.133,249.432 311.214,249.566 311.377 M186.133 313.184 L 186.133 315.039 182.910 315.039 L 179.688 315.039 179.688 323.242 L 179.688 331.445 177.734 331.445 L 175.781 331.445 175.781 323.242 L 175.781 315.039 172.559 315.039 L 169.336 315.039 169.336 313.184 L 169.336 311.328 177.734 311.328 L 186.133 311.328 186.133 313.184 M210.380 311.713 C 214.208 312.900,215.412 317.567,212.556 320.143 L 211.769 320.852 212.766 321.510 C 216.004 323.648,215.783 328.613,212.368 330.412 C 210.611 331.339,209.695 331.445,203.506 331.445 L 197.852 331.445 197.852 321.387 L 197.852 311.328 203.495 311.328 C 208.560 311.328,209.266 311.368,210.380 311.713 M311.142 312.481 C 311.621 313.115,313.945 316.080,316.309 319.070 L 320.605 324.507 320.667 323.338 C 320.700 322.694,320.700 319.729,320.667 316.748 L 320.605 311.328 322.607 311.328 L 324.609 311.328 324.609 321.387 L 324.609 331.445 322.862 331.445 L 321.115 331.445 318.907 328.560 C 317.693 326.972,315.337 323.943,313.672 321.827 L 310.645 317.980 310.547 324.664 L 310.449 331.348 308.447 331.403 L 306.445 331.459 306.445 321.394 L 306.445 311.328 308.359 311.328 L 310.273 311.328 311.142 312.481 M289.821 314.918 C 285.975 316.293,284.225 320.862,286.093 324.655 C 288.402 329.345,295.156 329.224,297.506 324.450 C 300.110 319.160,295.153 313.012,289.821 314.918 M201.888 314.974 C 201.816 315.046,201.758 316.100,201.758 317.318 L 201.758 319.531 204.714 319.531 C 206.414 319.531,207.995 319.434,208.436 319.302 C 210.731 318.614,210.774 315.560,208.496 315.033 C 207.602 314.827,202.085 314.777,201.888 314.974 M153.906 318.164 L 153.906 321.289 157.165 321.289 C 161.861 321.289,163.109 320.507,162.842 317.730 C 162.627 315.489,161.696 315.039,157.278 315.039 L 153.906 315.039 153.906 318.164 M246.060 319.287 C 245.245 321.194,244.519 322.952,244.444 323.193 L 244.310 323.633 247.559 323.633 L 250.808 323.633 250.670 323.193 C 250.594 322.952,250.118 321.787,249.612 320.605 C 249.106 319.424,248.446 317.864,248.145 317.139 C 247.844 316.414,247.585 315.820,247.569 315.820 C 247.553 315.820,246.874 317.380,246.060 319.287 M134.321 319.482 C 133.504 321.389,132.776 323.103,132.705 323.291 C 132.585 323.608,132.816 323.633,135.938 323.633 C 138.653 323.633,139.280 323.583,139.200 323.373 C 138.561 321.707,136.038 316.016,135.939 316.016 C 135.867 316.016,135.139 317.576,134.321 319.482 M201.758 325.272 L 201.758 327.734 205.475 327.734 C 210.318 327.734,211.133 327.408,211.133 325.471 C 211.133 323.462,210.080 322.986,205.420 322.887 L 201.758 322.809 201.758 325.272 " stroke="none" fill="#fbfbfb" fill-rule="evenodd"></path><path id="path2" d="M234.511 103.107 C 229.996 104.928,229.298 110.241,233.130 113.613 C 239.749 119.440,241.814 121.432,244.881 124.953 C 263.338 146.145,269.909 175.854,262.100 202.804 C 259.299 212.469,255.272 220.684,249.401 228.706 C 244.928 234.817,253.176 242.159,258.475 236.783 C 260.214 235.019,265.117 227.187,267.644 222.136 C 286.012 185.428,278.790 141.720,249.512 112.403 C 240.560 103.439,237.850 101.760,234.511 103.107 M222.772 123.941 C 221.452 124.364,219.712 126.107,219.275 127.443 C 218.216 130.682,218.929 132.578,222.307 135.510 C 243.608 153.996,248.483 186.834,233.316 209.668 C 230.915 213.283,230.629 214.315,231.351 216.749 C 232.529 220.713,238.048 222.385,240.988 219.668 C 242.054 218.683,245.366 213.356,247.263 209.576 C 260.162 183.871,255.123 152.132,234.790 131.009 C 228.147 124.107,226.070 122.886,222.772 123.941 M211.621 143.621 C 208.821 144.549,207.360 146.502,207.360 149.316 C 207.360 151.446,207.644 151.986,210.136 154.586 C 221.322 166.256,223.380 183.181,215.133 195.677 C 212.205 200.115,214.929 205.465,220.117 205.465 C 222.469 205.465,223.886 204.630,225.325 202.397 C 236.408 185.197,233.446 161.037,218.439 146.236 C 215.761 143.594,213.880 142.872,211.621 143.621 " stroke="none" fill="#09cff3" fill-rule="evenodd"></path><path id="path3" d="M236.377 102.674 C 236.565 102.723,236.873 102.723,237.061 102.674 C 237.249 102.625,237.095 102.584,236.719 102.584 C 236.343 102.584,236.189 102.625,236.377 102.674 M241.797 105.139 C 241.797 105.173,242.083 105.458,242.432 105.774 L 243.066 106.348 242.493 105.713 C 241.958 105.121,241.797 104.988,241.797 105.139 M243.945 107.129 C 244.310 107.505,244.652 107.813,244.706 107.813 C 244.759 107.813,244.505 107.505,244.141 107.129 C 243.776 106.753,243.434 106.445,243.380 106.445 C 243.327 106.445,243.581 106.753,243.945 107.129 M230.527 108.789 C 230.527 109.380,230.564 109.622,230.609 109.326 C 230.653 109.031,230.653 108.547,230.609 108.252 C 230.564 107.957,230.527 108.198,230.527 108.789 M245.996 108.984 C 246.525 109.521,247.002 109.961,247.056 109.961 C 247.109 109.961,246.720 109.521,246.191 108.984 C 245.662 108.447,245.186 108.008,245.132 108.008 C 245.078 108.008,245.467 108.447,245.996 108.984 M249.609 112.366 C 249.609 112.399,249.895 112.685,250.244 113.001 L 250.879 113.574 250.305 112.939 C 249.771 112.348,249.609 112.215,249.609 112.366 M232.422 113.184 C 232.786 113.560,233.128 113.867,233.182 113.867 C 233.236 113.867,232.982 113.560,232.617 113.184 C 232.253 112.808,231.911 112.500,231.857 112.500 C 231.803 112.500,232.057 112.808,232.422 113.184 M252.336 115.283 C 253.145 116.146,253.320 116.301,253.320 116.154 C 253.320 116.123,252.903 115.705,252.393 115.226 L 251.465 114.355 252.336 115.283 M240.622 120.557 C 243.069 123.051,243.359 123.331,243.359 123.191 C 243.359 123.162,242.151 121.954,240.674 120.505 L 237.988 117.871 240.622 120.557 M224.463 123.572 C 224.651 123.621,224.958 123.621,225.146 123.572 C 225.334 123.523,225.181 123.483,224.805 123.483 C 224.429 123.483,224.275 123.523,224.463 123.572 M220.497 125.342 L 219.824 126.074 220.557 125.401 C 221.238 124.775,221.379 124.609,221.230 124.609 C 221.197 124.609,220.867 124.939,220.497 125.342 M229.688 126.074 C 230.052 126.450,230.394 126.758,230.448 126.758 C 230.501 126.758,230.247 126.450,229.883 126.074 C 229.518 125.698,229.176 125.391,229.123 125.391 C 229.069 125.391,229.323 125.698,229.688 126.074 M233.496 129.688 C 234.889 131.084,236.073 132.227,236.127 132.227 C 236.181 132.227,235.085 131.084,233.691 129.688 C 232.298 128.291,231.114 127.148,231.060 127.148 C 231.007 127.148,232.103 128.291,233.496 129.688 M236.328 132.678 C 236.328 132.712,236.614 132.998,236.963 133.313 L 237.598 133.887 237.024 133.252 C 236.489 132.660,236.328 132.527,236.328 132.678 M266.699 135.547 C 266.866 135.869,267.046 136.133,267.100 136.133 C 267.154 136.133,267.061 135.869,266.895 135.547 C 266.728 135.225,266.548 134.961,266.494 134.961 C 266.440 134.961,266.533 135.225,266.699 135.547 M224.219 137.402 C 224.802 137.993,225.324 138.477,225.377 138.477 C 225.431 138.477,224.998 137.993,224.414 137.402 C 223.831 136.812,223.309 136.328,223.256 136.328 C 223.202 136.328,223.635 136.812,224.219 137.402 M267.985 137.988 C 267.985 138.096,268.154 138.491,268.359 138.867 C 268.565 139.243,268.734 139.463,268.734 139.355 C 268.734 139.248,268.565 138.853,268.359 138.477 C 268.154 138.101,267.985 137.881,267.985 137.988 M208.878 145.166 L 208.105 145.996 208.936 145.224 C 209.392 144.799,209.766 144.426,209.766 144.394 C 209.766 144.246,209.596 144.394,208.878 145.166 M217.480 145.313 C 218.010 145.850,218.486 146.289,218.540 146.289 C 218.594 146.289,218.205 145.850,217.676 145.313 C 217.147 144.775,216.670 144.336,216.616 144.336 C 216.563 144.336,216.951 144.775,217.480 145.313 M219.531 147.327 C 219.531 147.360,219.817 147.646,220.166 147.962 L 220.801 148.535 220.227 147.900 C 219.692 147.309,219.531 147.176,219.531 147.327 M209.863 154.492 C 210.826 155.459,211.657 156.250,211.711 156.250 C 211.764 156.250,211.021 155.459,210.059 154.492 C 209.096 153.525,208.265 152.734,208.211 152.734 C 208.158 152.734,208.901 153.525,209.863 154.492 M167.525 158.149 C 167.872 158.192,168.487 158.193,168.892 158.150 C 169.297 158.108,169.014 158.073,168.262 158.072 C 167.510 158.071,167.178 158.106,167.525 158.149 M163.330 158.338 C 163.518 158.387,163.826 158.387,164.014 158.338 C 164.202 158.289,164.048 158.248,163.672 158.248 C 163.296 158.248,163.142 158.289,163.330 158.338 M167.341 160.105 C 167.908 160.145,168.787 160.144,169.294 160.104 C 169.800 160.064,169.336 160.032,168.262 160.032 C 167.188 160.033,166.773 160.066,167.341 160.105 M166.260 162.635 C 166.448 162.684,166.755 162.684,166.943 162.635 C 167.131 162.586,166.978 162.545,166.602 162.545 C 166.226 162.545,166.072 162.586,166.260 162.635 M169.580 162.635 C 169.768 162.684,170.076 162.684,170.264 162.635 C 170.452 162.586,170.298 162.545,169.922 162.545 C 169.546 162.545,169.392 162.586,169.580 162.635 M180.078 163.770 C 180.443 164.146,180.785 164.453,180.838 164.453 C 180.892 164.453,180.638 164.146,180.273 163.770 C 179.909 163.394,179.567 163.086,179.513 163.086 C 179.460 163.086,179.714 163.394,180.078 163.770 M276.998 168.945 C 276.998 169.321,277.039 169.475,277.088 169.287 C 277.137 169.099,277.137 168.792,277.088 168.604 C 277.039 168.416,276.998 168.569,276.998 168.945 M277.194 170.703 C 277.194 171.079,277.234 171.233,277.283 171.045 C 277.332 170.857,277.332 170.549,277.283 170.361 C 277.234 170.173,277.194 170.327,277.194 170.703 M166.455 170.642 C 166.643 170.692,166.951 170.692,167.139 170.642 C 167.327 170.593,167.173 170.553,166.797 170.553 C 166.421 170.553,166.267 170.593,166.455 170.642 M169.485 170.646 C 169.728 170.693,170.079 170.691,170.266 170.642 C 170.453 170.593,170.254 170.555,169.824 170.557 C 169.395 170.559,169.242 170.599,169.485 170.646 M253.952 171.875 C 253.952 172.251,253.992 172.405,254.041 172.217 C 254.090 172.029,254.090 171.721,254.041 171.533 C 253.992 171.345,253.952 171.499,253.952 171.875 M277.400 172.949 C 277.401 173.486,277.439 173.683,277.484 173.386 C 277.529 173.089,277.528 172.650,277.481 172.409 C 277.435 172.169,277.398 172.412,277.400 172.949 M254.151 173.730 C 254.153 174.160,254.193 174.313,254.240 174.070 C 254.286 173.827,254.285 173.475,254.236 173.289 C 254.187 173.102,254.149 173.301,254.151 173.730 M265.095 174.316 C 265.096 174.854,265.134 175.050,265.179 174.753 C 265.224 174.456,265.223 174.017,265.177 173.777 C 265.130 173.536,265.093 173.779,265.095 174.316 M277.603 175.879 C 277.604 176.631,277.639 176.915,277.682 176.509 C 277.724 176.104,277.723 175.489,277.680 175.142 C 277.637 174.795,277.602 175.127,277.603 175.879 M231.881 175.391 C 231.881 175.767,231.921 175.920,231.971 175.732 C 232.020 175.544,232.020 175.237,231.971 175.049 C 231.921 174.861,231.881 175.015,231.881 175.391 M242.048 175.684 C 242.050 176.221,242.087 176.417,242.132 176.120 C 242.177 175.823,242.176 175.384,242.130 175.144 C 242.083 174.904,242.047 175.146,242.048 175.684 M254.378 179.395 C 254.378 181.436,254.407 182.244,254.443 181.191 C 254.478 180.138,254.478 178.468,254.442 177.480 C 254.407 176.492,254.378 177.354,254.378 179.395 M195.117 176.855 C 194.643 177.339,194.299 177.734,194.352 177.734 C 194.406 177.734,194.838 177.339,195.313 176.855 C 195.787 176.372,196.131 175.977,196.077 175.977 C 196.024 175.977,195.592 176.372,195.117 176.855 M219.997 178.516 C 219.997 179.858,220.028 180.408,220.066 179.736 C 220.105 179.065,220.105 177.966,220.066 177.295 C 220.028 176.624,219.997 177.173,219.997 178.516 M265.311 180.371 C 265.312 181.875,265.342 182.464,265.380 181.681 C 265.417 180.897,265.416 179.667,265.379 178.947 C 265.342 178.226,265.311 178.867,265.311 180.371 M232.084 178.906 C 232.084 179.390,232.123 179.587,232.169 179.346 C 232.216 179.104,232.216 178.708,232.169 178.467 C 232.123 178.225,232.084 178.423,232.084 178.906 M164.697 181.775 C 164.885 181.824,165.193 181.824,165.381 181.775 C 165.569 181.726,165.415 181.686,165.039 181.686 C 164.663 181.686,164.509 181.726,164.697 181.775 M171.633 181.779 C 171.876 181.825,172.228 181.824,172.414 181.775 C 172.601 181.726,172.402 181.688,171.973 181.690 C 171.543 181.692,171.390 181.732,171.633 181.779 M231.885 182.715 C 231.887 183.145,231.927 183.297,231.974 183.054 C 232.021 182.811,232.019 182.460,231.970 182.273 C 231.921 182.086,231.883 182.285,231.885 182.715 M242.048 183.105 C 242.050 183.643,242.087 183.839,242.132 183.542 C 242.177 183.245,242.176 182.806,242.130 182.566 C 242.083 182.325,242.047 182.568,242.048 183.105 M277.603 184.668 C 277.604 185.420,277.639 185.704,277.682 185.298 C 277.724 184.893,277.723 184.278,277.680 183.931 C 277.637 183.584,277.602 183.916,277.603 184.668 M254.147 184.961 C 254.147 185.337,254.187 185.491,254.236 185.303 C 254.285 185.115,254.285 184.807,254.236 184.619 C 254.187 184.431,254.147 184.585,254.147 184.961 M166.757 184.716 C 167.649 184.752,169.055 184.752,169.882 184.715 C 170.710 184.679,169.980 184.649,168.262 184.649 C 166.543 184.650,165.866 184.679,166.757 184.716 M265.095 185.645 C 265.096 186.182,265.134 186.378,265.179 186.081 C 265.224 185.784,265.223 185.345,265.177 185.105 C 265.130 184.865,265.093 185.107,265.095 185.645 M143.600 186.328 C 143.600 186.704,143.640 186.858,143.689 186.670 C 143.738 186.482,143.738 186.174,143.689 185.986 C 143.640 185.798,143.600 185.952,143.600 186.328 M253.956 187.012 C 253.958 187.441,253.998 187.594,254.044 187.351 C 254.091 187.108,254.089 186.757,254.040 186.570 C 253.992 186.383,253.953 186.582,253.956 187.012 M277.397 187.695 C 277.397 188.179,277.435 188.376,277.482 188.135 C 277.528 187.893,277.528 187.498,277.482 187.256 C 277.435 187.014,277.397 187.212,277.397 187.695 M227.344 198.828 C 227.125 199.258,226.989 199.609,227.043 199.609 C 227.097 199.609,227.320 199.258,227.539 198.828 C 227.758 198.398,227.894 198.047,227.840 198.047 C 227.786 198.047,227.563 198.398,227.344 198.828 M213.721 199.316 C 213.723 199.746,213.763 199.899,213.810 199.656 C 213.857 199.413,213.855 199.061,213.806 198.875 C 213.757 198.688,213.719 198.887,213.721 199.316 M215.039 203.186 C 215.039 203.220,215.325 203.505,215.674 203.821 L 216.309 204.395 215.735 203.760 C 215.200 203.168,215.039 203.035,215.039 203.186 M219.681 205.610 C 220.032 205.654,220.560 205.653,220.853 205.608 C 221.147 205.564,220.859 205.528,220.215 205.529 C 219.570 205.530,219.330 205.567,219.681 205.610 M247.403 209.283 C 247.115 209.871,246.921 210.352,246.971 210.352 C 247.103 210.352,248.088 208.375,248.000 208.287 C 247.960 208.247,247.692 208.695,247.403 209.283 M230.915 214.746 C 230.917 215.283,230.955 215.480,231.000 215.183 C 231.044 214.886,231.043 214.447,230.997 214.206 C 230.951 213.966,230.914 214.209,230.915 214.746 M256.969 215.927 C 256.510 216.889,256.574 217.053,257.054 216.144 C 257.272 215.731,257.416 215.358,257.373 215.316 C 257.331 215.274,257.149 215.549,256.969 215.927 M256.152 217.578 C 255.986 217.900,255.893 218.164,255.947 218.164 C 256.001 218.164,256.181 217.900,256.348 217.578 C 256.514 217.256,256.607 216.992,256.553 216.992 C 256.499 216.992,256.319 217.256,256.152 217.578 M241.101 219.580 L 240.527 220.215 241.162 219.641 C 241.754 219.106,241.887 218.945,241.736 218.945 C 241.702 218.945,241.417 219.231,241.101 219.580 M267.718 221.981 C 267.105 223.212,266.646 224.219,266.699 224.219 C 266.828 224.219,268.987 219.898,268.900 219.812 C 268.863 219.774,268.330 220.750,267.718 221.981 M263.746 229.150 C 263.074 230.291,263.030 230.388,263.373 229.980 C 263.769 229.508,264.111 228.906,263.983 228.906 C 263.932 228.906,263.825 229.016,263.746 229.150 M131.403 232.275 C 131.504 234.122,131.582 234.304,131.611 232.764 C 131.627 231.931,131.575 231.250,131.494 231.250 C 131.414 231.250,131.373 231.711,131.403 232.275 M209.180 233.264 C 209.180 233.298,209.465 233.583,209.814 233.899 L 210.449 234.473 209.876 233.838 C 209.341 233.246,209.180 233.113,209.180 233.264 M249.797 236.768 C 250.606 237.630,250.781 237.785,250.781 237.638 C 250.781 237.607,250.364 237.189,249.854 236.711 L 248.926 235.840 249.797 236.768 M125.195 239.344 C 125.195 239.942,125.307 239.991,125.447 239.453 C 125.503 239.239,125.470 239.014,125.372 238.954 C 125.275 238.893,125.195 239.069,125.195 239.344 M126.563 239.124 C 126.563 239.157,126.848 239.443,127.197 239.758 L 127.832 240.332 127.258 239.697 C 126.724 239.106,126.563 238.973,126.563 239.124 M211.408 243.848 C 211.408 245.674,211.437 246.447,211.473 245.566 C 211.509 244.685,211.510 243.191,211.474 242.246 C 211.438 241.301,211.408 242.021,211.408 243.848 M125.264 244.727 C 125.264 245.640,125.297 246.013,125.338 245.557 C 125.379 245.100,125.379 244.353,125.338 243.896 C 125.297 243.440,125.264 243.813,125.264 244.727 M209.265 251.221 L 208.691 251.855 209.326 251.282 C 209.918 250.747,210.051 250.586,209.900 250.586 C 209.866 250.586,209.581 250.872,209.265 251.221 M168.018 258.734 C 168.313 258.778,168.796 258.778,169.092 258.734 C 169.387 258.689,169.146 258.652,168.555 258.652 C 167.964 258.652,167.722 258.689,168.018 258.734 M121.484 321.328 C 121.431 326.882,121.453 331.359,121.535 331.278 C 121.617 331.196,121.660 326.652,121.633 321.180 L 121.582 311.230 121.484 321.328 M185.977 313.032 L 185.938 314.834 182.764 314.893 L 179.590 314.952 182.770 314.995 C 186.445 315.046,186.178 315.217,186.083 312.874 L 186.017 311.230 185.977 313.032 M219.040 321.387 L 219.043 331.348 226.855 331.348 L 234.668 331.348 234.668 329.590 L 234.668 327.832 228.809 327.828 L 222.949 327.823 228.760 327.879 L 234.570 327.935 234.570 329.593 L 234.570 331.250 226.857 331.250 L 219.144 331.250 219.091 321.338 L 219.038 311.426 219.040 321.387 M306.540 321.387 L 306.543 331.348 307.031 331.367 C 307.452 331.383,307.459 331.374,307.082 331.305 L 306.644 331.224 306.591 321.325 L 306.538 311.426 306.540 321.387 M324.505 321.094 C 324.505 326.519,324.530 328.738,324.560 326.025 C 324.591 323.313,324.591 318.875,324.560 316.162 C 324.530 313.450,324.505 315.669,324.505 321.094 M82.117 312.939 L 81.543 313.574 82.178 313.001 C 82.769 312.466,82.902 312.305,82.751 312.305 C 82.718 312.305,82.432 312.590,82.117 312.939 M164.941 313.477 C 165.361 313.906,165.748 314.258,165.802 314.258 C 165.856 314.258,165.556 313.906,165.137 313.477 C 164.717 313.047,164.330 312.695,164.276 312.695 C 164.222 312.695,164.522 313.047,164.941 313.477 M277.922 313.524 L 278.590 314.256 278.020 314.892 L 277.450 315.527 278.126 314.892 L 278.802 314.257 278.028 313.525 L 277.254 312.793 277.922 313.524 M262.981 314.111 L 262.012 315.137 263.037 314.167 C 263.990 313.267,264.152 313.086,264.006 313.086 C 263.975 313.086,263.514 313.547,262.981 314.111 M169.336 314.893 C 169.336 314.973,170.785 315.039,172.556 315.039 L 175.777 315.039 175.828 323.193 L 175.879 331.348 176.321 331.374 C 176.685 331.395,176.694 331.384,176.372 331.312 C 175.989 331.225,175.980 331.049,175.930 323.082 L 175.879 314.941 172.607 314.844 C 170.808 314.790,169.335 314.812,169.336 314.893 M153.838 314.990 C 153.788 315.071,154.376 315.113,155.145 315.083 C 157.525 314.992,157.800 314.908,155.822 314.875 C 154.781 314.858,153.888 314.910,153.838 314.990 M197.907 315.723 C 197.909 316.260,197.947 316.456,197.992 316.159 C 198.037 315.863,198.035 315.423,197.989 315.183 C 197.943 314.943,197.906 315.186,197.907 315.723 M223.193 314.982 C 223.435 315.028,223.831 315.028,224.072 314.982 C 224.314 314.935,224.116 314.897,223.633 314.897 C 223.149 314.897,222.952 314.935,223.193 314.982 M228.760 314.989 C 229.592 315.026,230.955 315.026,231.787 314.989 C 232.620 314.952,231.938 314.922,230.273 314.922 C 228.608 314.922,227.927 314.952,228.760 314.989 M80.518 316.895 C 80.520 317.324,80.560 317.477,80.607 317.234 C 80.654 316.991,80.652 316.640,80.603 316.453 C 80.554 316.266,80.516 316.465,80.518 316.895 M103.320 318.652 C 103.320 319.601,103.358 320.340,103.404 320.294 C 103.544 320.154,103.585 317.191,103.448 317.055 C 103.378 316.985,103.320 317.703,103.320 318.652 M162.940 318.066 C 162.942 318.496,162.982 318.649,163.029 318.406 C 163.075 318.163,163.074 317.811,163.025 317.625 C 162.976 317.438,162.938 317.637,162.940 318.066 M197.898 325.049 L 197.852 331.445 203.564 331.400 L 209.277 331.354 203.665 331.299 L 198.052 331.244 197.998 324.948 L 197.944 318.652 197.898 325.049 M203.183 319.677 C 204.020 319.713,205.339 319.713,206.112 319.676 C 206.886 319.639,206.201 319.609,204.590 319.609 C 202.979 319.610,202.345 319.640,203.183 319.677 M285.219 321.484 C 285.219 322.183,285.254 322.468,285.298 322.119 C 285.341 321.770,285.341 321.199,285.298 320.850 C 285.254 320.500,285.219 320.786,285.219 321.484 M103.366 325.814 C 103.331 329.919,103.262 331.241,103.076 331.316 C 102.885 331.393,102.886 331.418,103.082 331.430 C 103.502 331.456,103.524 331.130,103.467 325.681 L 103.411 320.410 103.366 325.814 M302.202 321.289 C 302.202 321.772,302.240 321.970,302.286 321.729 C 302.333 321.487,302.333 321.091,302.286 320.850 C 302.240 320.608,302.202 320.806,302.202 321.289 M157.471 321.433 C 157.981 321.473,158.816 321.473,159.326 321.433 C 159.836 321.392,159.419 321.359,158.398 321.359 C 157.378 321.359,156.960 321.392,157.471 321.433 M264.108 322.070 C 264.108 322.446,264.148 322.600,264.197 322.412 C 264.246 322.224,264.246 321.917,264.197 321.729 C 264.148 321.541,264.108 321.694,264.108 322.070 M225.623 322.997 C 226.987 323.031,229.272 323.031,230.701 322.998 C 232.131 322.964,231.016 322.937,228.223 322.937 C 225.430 322.937,224.260 322.964,225.623 322.997 M245.742 323.778 C 246.677 323.814,248.259 323.814,249.258 323.778 C 250.257 323.743,249.492 323.714,247.559 323.714 C 245.625 323.713,244.808 323.742,245.742 323.778 M153.838 324.756 C 153.788 324.836,154.420 324.879,155.243 324.849 C 157.867 324.756,158.167 324.676,156.017 324.642 C 154.869 324.624,153.888 324.675,153.838 324.756 M277.140 326.611 C 277.950 327.474,278.125 327.629,278.125 327.482 C 278.125 327.451,277.708 327.033,277.197 326.554 L 276.270 325.684 277.140 326.611 M130.792 327.295 C 130.742 327.375,133.014 327.441,135.840 327.441 C 138.666 327.441,140.938 327.375,140.888 327.295 C 140.838 327.214,138.566 327.148,135.840 327.148 C 133.113 327.148,130.842 327.214,130.792 327.295 M244.591 327.294 C 245.859 327.328,247.881 327.328,249.083 327.294 C 250.286 327.260,249.248 327.232,246.777 327.232 C 244.307 327.232,243.323 327.260,244.591 327.294 M202.295 327.876 C 202.644 327.919,203.215 327.919,203.564 327.876 C 203.914 327.832,203.628 327.797,202.930 327.797 C 202.231 327.797,201.946 327.832,202.295 327.876 M284.082 328.711 C 284.502 329.141,284.889 329.492,284.943 329.492 C 284.996 329.492,284.697 329.141,284.277 328.711 C 283.858 328.281,283.471 327.930,283.417 327.930 C 283.363 327.930,283.662 328.281,284.082 328.711 M263.086 328.809 C 263.450 329.185,263.792 329.492,263.846 329.492 C 263.900 329.492,263.646 329.185,263.281 328.809 C 262.917 328.433,262.575 328.125,262.521 328.125 C 262.467 328.125,262.722 328.433,263.086 328.809 M270.264 328.263 C 270.505 328.309,270.901 328.309,271.143 328.263 C 271.384 328.216,271.187 328.178,270.703 328.178 C 270.220 328.178,270.022 328.216,270.264 328.263 M291.260 328.260 C 291.448 328.309,291.755 328.309,291.943 328.260 C 292.131 328.211,291.978 328.170,291.602 328.170 C 291.226 328.170,291.072 328.211,291.260 328.260 M299.109 328.760 L 298.535 329.395 299.170 328.821 C 299.762 328.286,299.894 328.125,299.744 328.125 C 299.710 328.125,299.424 328.411,299.109 328.760 M93.835 329.541 L 93.262 330.176 93.896 329.602 C 94.488 329.067,94.621 328.906,94.470 328.906 C 94.437 328.906,94.151 329.192,93.835 329.541 M142.549 331.299 C 142.648 331.398,142.936 331.446,143.190 331.406 C 143.581 331.344,143.554 331.317,143.011 331.227 C 142.623 331.162,142.441 331.191,142.549 331.299 M145.508 331.250 L 144.434 331.382 145.557 331.413 C 146.196 331.432,146.680 331.361,146.680 331.250 C 146.680 331.143,146.658 331.069,146.631 331.087 C 146.604 331.104,146.099 331.178,145.508 331.250 M165.039 331.250 L 162.793 331.367 165.088 331.406 C 166.514 331.431,167.383 331.371,167.383 331.250 C 167.383 331.143,167.361 331.072,167.334 331.094 C 167.307 331.115,166.274 331.185,165.039 331.250 M150.928 331.394 C 151.492 331.433,152.415 331.433,152.979 331.394 C 153.542 331.355,153.081 331.322,151.953 331.322 C 150.825 331.322,150.364 331.355,150.928 331.394 M255.426 331.394 C 255.994 331.434,256.873 331.433,257.380 331.393 C 257.886 331.353,257.422 331.321,256.348 331.321 C 255.273 331.322,254.859 331.355,255.426 331.394 M87.744 331.775 C 87.932 331.824,88.240 331.824,88.428 331.775 C 88.616 331.726,88.462 331.686,88.086 331.686 C 87.710 331.686,87.556 331.726,87.744 331.775 M270.267 331.782 C 270.618 331.826,271.146 331.825,271.439 331.780 C 271.733 331.736,271.445 331.700,270.801 331.701 C 270.156 331.702,269.916 331.739,270.267 331.782 " stroke="none" fill="#9bc1d4" fill-rule="evenodd"></path><path id="path4" d="M235.104 102.544 C 230.000 103.832,228.622 110.233,232.691 113.751 C 233.324 114.298,234.643 115.436,235.622 116.278 C 257.318 134.952,268.147 163.198,264.277 191.016 C 263.938 193.453,263.844 194.592,264.068 193.555 C 264.661 190.807,265.083 186.323,265.178 181.738 C 265.710 156.290,254.945 132.311,235.645 115.954 C 231.135 112.131,230.571 111.324,230.582 108.691 C 230.597 104.696,234.322 101.813,238.159 102.829 C 239.596 103.209,239.873 103.405,243.457 106.558 C 264.383 124.968,275.412 146.624,277.553 173.501 C 277.824 176.904,277.696 186.916,277.348 189.505 C 277.221 190.447,277.154 191.325,277.198 191.457 C 277.677 192.896,278.127 178.004,277.746 173.289 C 275.538 145.950,264.445 124.485,242.732 105.537 C 239.388 102.619,237.596 101.916,235.104 102.544 M222.531 123.649 C 218.060 125.368,217.125 131.150,220.768 134.546 C 227.495 140.817,230.258 144.181,234.061 150.730 C 244.944 169.472,244.489 192.392,232.889 209.808 C 231.880 211.322,231.058 212.701,231.062 212.873 C 231.067 213.044,231.187 212.920,231.330 212.598 C 231.473 212.275,232.353 210.884,233.285 209.505 C 246.996 189.233,244.523 160.620,227.344 140.771 C 225.597 138.753,224.741 137.891,221.063 134.449 C 216.719 130.383,218.989 123.600,224.707 123.561 C 227.138 123.544,229.580 125.319,235.032 131.063 C 250.096 146.934,257.247 169.784,253.613 190.430 C 253.307 192.170,253.257 192.707,253.416 192.548 C 253.468 192.495,253.684 191.272,253.895 189.830 C 257.198 167.290,249.927 145.592,233.605 129.289 C 227.608 123.298,225.816 122.385,222.531 123.649 M211.941 143.171 C 206.444 144.304,205.259 150.369,209.691 154.688 C 219.260 164.012,222.283 177.667,217.559 190.234 C 216.836 192.158,216.326 193.143,214.580 195.985 C 214.188 196.623,213.871 197.282,213.875 197.449 C 213.879 197.617,213.998 197.490,214.139 197.168 C 214.280 196.846,214.813 195.937,215.324 195.148 C 220.135 187.722,221.284 176.950,218.244 167.773 C 216.662 162.997,214.220 159.040,210.374 155.019 C 206.435 150.900,206.029 148.040,208.967 145.105 C 211.994 142.081,215.096 142.614,219.187 146.860 C 228.487 156.514,232.938 169.233,231.973 183.398 C 231.873 184.875,231.881 184.940,232.051 183.984 C 232.365 182.210,232.317 175.571,231.971 173.047 C 230.544 162.625,226.082 153.435,218.961 146.254 C 216.065 143.333,214.498 142.644,211.941 143.171 M165.771 158.146 C 166.013 158.192,166.409 158.192,166.650 158.146 C 166.892 158.099,166.694 158.061,166.211 158.061 C 165.728 158.061,165.530 158.099,165.771 158.146 M169.875 158.146 C 170.118 158.193,170.470 158.191,170.657 158.142 C 170.843 158.093,170.645 158.055,170.215 158.057 C 169.785 158.059,169.632 158.099,169.875 158.146 M231.494 186.707 C 231.362 187.611,231.289 188.385,231.330 188.426 C 231.448 188.544,231.876 185.803,231.801 185.412 C 231.764 185.220,231.626 185.803,231.494 186.707 M230.712 190.362 C 230.471 191.295,230.307 192.091,230.348 192.131 C 230.453 192.237,231.288 189.077,231.213 188.853 C 231.179 188.751,230.953 189.429,230.712 190.362 M276.698 194.155 C 276.508 195.464,276.390 196.572,276.435 196.617 C 276.550 196.733,277.210 192.275,277.118 192.000 C 277.077 191.876,276.888 192.845,276.698 194.155 M229.827 193.401 C 229.649 193.957,229.536 194.445,229.576 194.485 C 229.615 194.524,229.797 194.106,229.980 193.555 C 230.163 193.004,230.277 192.516,230.232 192.471 C 230.187 192.427,230.005 192.845,229.827 193.401 M252.951 193.945 C 252.811 194.644,252.396 196.261,252.028 197.539 C 251.660 198.817,251.393 199.896,251.434 199.937 C 251.613 200.116,253.374 193.475,253.274 192.998 C 253.237 192.821,253.091 193.247,252.951 193.945 M263.575 195.361 C 263.326 196.933,262.135 201.666,261.325 204.297 C 260.286 207.671,260.268 207.738,260.430 207.591 C 260.990 207.083,264.237 194.531,263.809 194.531 C 263.752 194.531,263.647 194.905,263.575 195.361 M228.386 196.974 C 227.842 198.203,227.463 199.168,227.544 199.118 C 227.727 199.005,229.535 194.899,229.442 194.807 C 229.405 194.770,228.930 195.745,228.386 196.974 M276.094 197.676 C 276.022 198.123,276.002 198.528,276.048 198.574 C 276.095 198.621,276.194 198.296,276.270 197.852 C 276.345 197.407,276.365 197.003,276.315 196.953 C 276.265 196.903,276.165 197.228,276.094 197.676 M213.559 198.549 C 213.086 201.067,215.965 205.482,218.066 205.463 C 218.174 205.462,217.779 205.196,217.189 204.870 C 214.945 203.634,213.780 201.725,213.780 199.283 C 213.780 197.668,213.746 197.553,213.559 198.549 M275.694 199.523 C 275.621 199.915,275.600 200.274,275.648 200.322 C 275.695 200.370,275.795 200.088,275.868 199.696 C 275.942 199.304,275.963 198.944,275.915 198.897 C 275.867 198.849,275.768 199.131,275.694 199.523 M226.758 200.195 C 226.539 200.625,226.403 200.977,226.457 200.977 C 226.511 200.977,226.734 200.625,226.953 200.195 C 227.172 199.766,227.308 199.414,227.254 199.414 C 227.200 199.414,226.977 199.766,226.758 200.195 M250.921 201.214 C 250.743 201.770,250.630 202.257,250.669 202.297 C 250.709 202.337,250.891 201.918,251.074 201.367 C 251.257 200.816,251.370 200.329,251.326 200.284 C 251.281 200.239,251.099 200.658,250.921 201.214 M225.583 202.197 C 225.241 202.761,225.088 203.091,225.243 202.930 C 225.595 202.565,226.434 201.172,226.302 201.172 C 226.249 201.172,225.925 201.633,225.583 202.197 M275.098 202.148 C 275.024 202.486,275.004 202.803,275.053 202.853 C 275.103 202.903,275.200 202.662,275.269 202.319 C 275.337 201.976,275.357 201.659,275.313 201.615 C 275.269 201.571,275.172 201.811,275.098 202.148 M250.217 203.147 C 250.097 203.492,250.032 203.808,250.074 203.850 C 250.116 203.892,250.249 203.644,250.369 203.299 C 250.489 202.953,250.554 202.637,250.512 202.595 C 250.470 202.553,250.337 202.802,250.217 203.147 M223.926 204.238 C 223.389 204.733,223.125 205.045,223.340 204.929 C 223.712 204.730,225.172 203.312,224.989 203.328 C 224.942 203.332,224.463 203.742,223.926 204.238 M249.349 205.306 C 249.063 205.969,248.860 206.543,248.899 206.581 C 248.937 206.619,249.203 206.109,249.490 205.447 C 249.777 204.785,249.980 204.212,249.940 204.172 C 249.901 204.133,249.635 204.643,249.349 205.306 M274.135 205.776 C 274.063 206.062,274.042 206.334,274.088 206.380 C 274.134 206.426,274.231 206.229,274.302 205.943 C 274.374 205.657,274.395 205.385,274.349 205.339 C 274.303 205.293,274.207 205.489,274.135 205.776 M219.678 205.802 C 219.919 205.848,220.315 205.848,220.557 205.802 C 220.798 205.755,220.601 205.717,220.117 205.717 C 219.634 205.717,219.436 205.755,219.678 205.802 M248.375 207.529 C 247.916 208.491,247.981 208.654,248.460 207.745 C 248.678 207.332,248.822 206.960,248.780 206.918 C 248.737 206.875,248.555 207.150,248.375 207.529 M273.549 207.729 C 273.477 208.015,273.456 208.287,273.502 208.333 C 273.548 208.379,273.645 208.182,273.717 207.896 C 273.788 207.610,273.809 207.338,273.763 207.292 C 273.717 207.246,273.621 207.443,273.549 207.729 M259.414 209.902 C 258.972 211.053,258.641 212.026,258.679 212.065 C 258.718 212.103,259.116 211.198,259.564 210.052 C 260.012 208.907,260.342 207.933,260.298 207.890 C 260.255 207.846,259.857 208.751,259.414 209.902 M246.659 210.986 C 246.428 211.443,246.016 212.212,245.744 212.695 C 245.471 213.179,245.344 213.486,245.461 213.379 C 245.742 213.121,247.331 210.156,247.189 210.156 C 247.128 210.156,246.890 210.530,246.659 210.986 M272.092 212.131 C 271.972 212.476,271.907 212.793,271.949 212.835 C 271.991 212.876,272.124 212.628,272.244 212.283 C 272.364 211.938,272.429 211.621,272.387 211.579 C 272.345 211.538,272.212 211.786,272.092 212.131 M257.747 213.900 C 257.353 214.777,257.061 215.525,257.099 215.563 C 257.137 215.600,257.491 214.914,257.886 214.038 C 258.281 213.162,258.572 212.414,258.534 212.375 C 258.496 212.337,258.142 213.023,257.747 213.900 M244.898 214.111 C 244.770 214.353,244.538 214.771,244.383 215.039 C 244.111 215.507,244.113 215.511,244.428 215.137 C 244.817 214.674,245.364 213.672,245.227 213.672 C 245.174 213.672,245.026 213.870,244.898 214.111 M243.450 216.455 C 243.149 216.912,243.027 217.182,243.180 217.056 C 243.473 216.814,244.221 215.625,244.080 215.625 C 244.034 215.625,243.751 215.999,243.450 216.455 M256.534 216.424 C 256.362 216.757,256.269 217.076,256.328 217.135 C 256.386 217.194,256.527 216.997,256.641 216.698 C 256.755 216.399,256.894 216.079,256.951 215.987 C 257.008 215.896,257.007 215.820,256.950 215.820 C 256.893 215.820,256.705 216.092,256.534 216.424 M269.954 217.489 C 269.626 218.207,269.689 218.360,270.043 217.707 C 270.208 217.402,270.307 217.116,270.262 217.072 C 270.217 217.027,270.078 217.215,269.954 217.489 M231.259 217.300 C 231.232 217.949,232.973 219.923,233.984 220.390 C 234.146 220.465,234.058 220.370,233.789 220.180 C 232.998 219.621,232.048 218.568,231.644 217.803 C 231.437 217.411,231.263 217.185,231.259 217.300 M242.278 218.213 C 241.977 218.669,241.855 218.940,242.008 218.814 C 242.301 218.572,243.049 217.383,242.908 217.383 C 242.863 217.383,242.579 217.756,242.278 218.213 M255.352 218.788 C 254.962 219.562,254.451 220.506,254.215 220.888 C 253.353 222.285,252.720 223.438,252.816 223.438 C 252.952 223.438,254.745 220.380,255.573 218.738 C 255.948 217.992,256.211 217.383,256.157 217.383 C 256.104 217.383,255.741 218.015,255.352 218.788 M269.172 219.247 C 268.845 219.965,268.908 220.118,269.261 219.465 C 269.427 219.160,269.525 218.874,269.481 218.830 C 269.436 218.785,269.297 218.973,269.172 219.247 M240.918 219.857 C 240.488 220.243,240.313 220.467,240.527 220.355 C 240.889 220.168,241.968 219.131,241.782 219.149 C 241.737 219.153,241.348 219.472,240.918 219.857 M236.670 221.235 C 237.019 221.278,237.590 221.278,237.939 221.235 C 238.289 221.192,238.003 221.156,237.305 221.156 C 236.606 221.156,236.321 221.192,236.670 221.235 M251.659 225.049 C 251.143 225.828,250.353 226.948,249.904 227.539 C 249.104 228.590,248.246 229.881,248.476 229.688 C 248.980 229.262,252.886 223.633,252.677 223.633 C 252.633 223.633,252.174 224.270,251.659 225.049 M266.406 224.805 C 266.187 225.234,266.052 225.586,266.105 225.586 C 266.159 225.586,266.382 225.234,266.602 224.805 C 266.821 224.375,266.956 224.023,266.902 224.023 C 266.849 224.023,266.625 224.375,266.406 224.805 M265.332 226.758 C 265.165 227.080,265.073 227.344,265.127 227.344 C 265.180 227.344,265.361 227.080,265.527 226.758 C 265.694 226.436,265.786 226.172,265.733 226.172 C 265.679 226.172,265.499 226.436,265.332 226.758 M262.395 231.494 C 262.094 231.951,261.972 232.221,262.125 232.095 C 262.418 231.853,263.166 230.664,263.025 230.664 C 262.980 230.664,262.696 231.038,262.395 231.494 M247.897 231.641 C 247.897 232.017,247.937 232.170,247.986 231.982 C 248.035 231.794,248.035 231.487,247.986 231.299 C 247.937 231.111,247.897 231.265,247.897 231.641 M247.901 233.105 C 247.903 233.535,247.943 233.688,247.990 233.445 C 248.036 233.202,248.035 232.850,247.986 232.664 C 247.937 232.477,247.899 232.676,247.901 233.105 M249.707 236.914 C 250.127 237.344,250.514 237.695,250.568 237.695 C 250.621 237.695,250.322 237.344,249.902 236.914 C 249.483 236.484,249.096 236.133,249.042 236.133 C 248.988 236.133,249.287 236.484,249.707 236.914 M258.203 237.150 C 257.612 237.701,257.305 238.056,257.520 237.939 C 257.895 237.734,259.547 236.125,259.366 236.140 C 259.317 236.144,258.794 236.599,258.203 237.150 M253.666 238.813 C 254.017 238.857,254.544 238.856,254.837 238.811 C 255.131 238.767,254.844 238.731,254.199 238.732 C 253.555 238.733,253.315 238.770,253.666 238.813 M125.265 241.504 C 125.264 242.471,125.297 242.891,125.338 242.438 C 125.379 241.984,125.379 241.193,125.339 240.680 C 125.299 240.166,125.265 240.537,125.265 241.504 M87.453 310.880 C 87.696 310.927,88.048 310.925,88.235 310.876 C 88.421 310.827,88.223 310.789,87.793 310.791 C 87.363 310.794,87.210 310.834,87.453 310.880 M270.459 310.880 C 270.701 310.927,271.096 310.927,271.338 310.880 C 271.580 310.833,271.382 310.795,270.898 310.795 C 270.415 310.795,270.217 310.833,270.459 310.880 M135.156 311.254 C 136.287 311.399,138.043 311.415,137.959 311.279 C 137.909 311.199,137.148 311.146,136.268 311.162 C 135.388 311.178,134.888 311.219,135.156 311.254 M246.637 311.277 C 247.205 311.317,248.084 311.316,248.591 311.276 C 249.097 311.236,248.633 311.204,247.559 311.204 C 246.484 311.205,246.070 311.237,246.637 311.277 M234.445 313.086 C 234.445 314.106,234.478 314.524,234.519 314.014 C 234.559 313.503,234.559 312.668,234.519 312.158 C 234.478 311.648,234.445 312.065,234.445 313.086 M298.828 313.538 C 298.828 313.571,299.114 313.857,299.463 314.172 L 300.098 314.746 299.524 314.111 C 298.989 313.520,298.828 313.387,298.828 313.538 M270.557 314.588 C 270.745 314.637,271.052 314.637,271.240 314.588 C 271.428 314.539,271.274 314.498,270.898 314.498 C 270.522 314.498,270.369 314.539,270.557 314.588 M158.059 314.984 C 158.356 315.029,158.796 315.028,159.036 314.981 C 159.276 314.935,159.033 314.898,158.496 314.900 C 157.959 314.901,157.762 314.939,158.059 314.984 M225.152 314.987 C 225.611 315.028,226.314 315.028,226.714 314.986 C 227.114 314.944,226.738 314.910,225.879 314.911 C 225.020 314.911,224.692 314.946,225.152 314.987 M222.926 317.285 C 222.927 318.574,222.958 319.076,222.996 318.401 C 223.035 317.725,223.034 316.670,222.996 316.057 C 222.957 315.443,222.926 315.996,222.926 317.285 M166.850 317.969 C 166.850 318.452,166.888 318.650,166.935 318.408 C 166.981 318.167,166.981 317.771,166.935 317.529 C 166.888 317.288,166.850 317.485,166.850 317.969 M310.398 324.454 L 310.352 331.233 308.936 331.300 L 307.520 331.368 308.942 331.407 C 310.722 331.455,310.562 332.182,310.498 324.315 L 310.444 317.676 310.398 324.454 M154.541 321.431 C 154.944 321.473,155.603 321.473,156.006 321.431 C 156.409 321.389,156.079 321.355,155.273 321.355 C 154.468 321.355,154.138 321.389,154.541 321.431 M222.927 325.391 C 222.927 326.733,222.958 327.283,222.996 326.611 C 223.034 325.940,223.034 324.841,222.996 324.170 C 222.958 323.499,222.927 324.048,222.927 325.391 M134.726 323.778 C 135.617 323.815,137.024 323.814,137.851 323.778 C 138.678 323.741,137.949 323.712,136.230 323.712 C 134.512 323.712,133.835 323.742,134.726 323.778 M251.516 327.287 C 251.759 327.333,252.110 327.332,252.297 327.283 C 252.484 327.234,252.285 327.196,251.855 327.198 C 251.426 327.200,251.273 327.240,251.516 327.287 M205.127 327.879 C 205.745 327.917,206.755 327.917,207.373 327.879 C 207.991 327.840,207.485 327.808,206.250 327.808 C 205.015 327.808,204.509 327.840,205.127 327.879 M87.649 328.263 C 87.892 328.310,88.243 328.308,88.430 328.259 C 88.617 328.210,88.418 328.172,87.988 328.174 C 87.559 328.176,87.406 328.216,87.649 328.263 M109.912 328.266 C 110.261 328.310,110.833 328.310,111.182 328.266 C 111.531 328.223,111.245 328.188,110.547 328.188 C 109.849 328.188,109.563 328.223,109.912 328.266 M100.738 331.393 C 101.197 331.435,101.900 331.434,102.300 331.392 C 102.700 331.350,102.324 331.316,101.465 331.317 C 100.605 331.318,100.278 331.352,100.738 331.393 M118.896 331.393 C 119.353 331.434,120.100 331.434,120.557 331.393 C 121.013 331.352,120.640 331.318,119.727 331.318 C 118.813 331.318,118.440 331.352,118.896 331.393 M126.908 331.392 C 127.259 331.435,127.786 331.434,128.080 331.390 C 128.373 331.345,128.086 331.309,127.441 331.311 C 126.797 331.312,126.557 331.348,126.908 331.392 M177.291 331.391 C 177.637 331.434,178.253 331.435,178.658 331.393 C 179.063 331.350,178.779 331.315,178.027 331.314 C 177.275 331.313,176.944 331.348,177.291 331.391 M238.044 331.394 C 238.611 331.434,239.490 331.433,239.997 331.393 C 240.503 331.353,240.039 331.321,238.965 331.321 C 237.891 331.322,237.476 331.355,238.044 331.394 M322.217 331.393 C 322.673 331.434,323.420 331.434,323.877 331.393 C 324.333 331.352,323.960 331.318,323.047 331.318 C 322.134 331.318,321.760 331.352,322.217 331.393 M291.162 331.778 C 291.404 331.825,291.799 331.825,292.041 331.778 C 292.283 331.732,292.085 331.694,291.602 331.694 C 291.118 331.694,290.920 331.732,291.162 331.778 " stroke="none" fill="#c8e3ee" fill-rule="evenodd"></path></g></svg>